<svg width="51" height="53" viewBox="0 0 51 53" fill="none" xmlns="http://www.w3.org/2000/svg">
<path d="M1 31.4599C1 22.2806 7.12029 19.9875 10.1816 19.9875C15.6859 19.9875 17.0631 24.5783 17.0631 26.8691V36.0507C17.0631 41.5549 12.4723 42.9322 10.1793 42.9322C7.12029 42.9322 1 40.6368 1 31.4599ZM49.1847 31.4599C49.1847 22.2806 43.0644 19.9875 40.0031 19.9875C34.4988 19.9875 33.1239 24.5783 33.1239 26.8691V36.0507C33.1239 41.5549 37.7147 42.9322 40.0054 42.9322C43.0644 42.9322 49.1847 40.6368 49.1847 31.4599Z" fill="white" fill-opacity="0.1"/>
<path d="M1 31.4599C1 22.2806 7.12029 19.9875 10.1816 19.9875C15.6859 19.9875 17.0631 24.5783 17.0631 26.8691V36.0507C17.0631 41.5549 12.4723 42.9322 10.1793 42.9322C7.12029 42.9322 1 40.6368 1 31.4599V31.4599ZM49.1847 31.4599C49.1847 22.2806 43.0644 19.9875 40.0031 19.9875C34.4988 19.9875 33.1239 24.5783 33.1239 26.8691V36.0507C33.1239 41.5549 37.7147 42.9322 40.0054 42.9322C43.0644 42.9322 49.1847 40.6368 49.1847 31.4599Z" stroke="#006837" stroke-width="2"/>
<path d="M2.56 24.7143C2.89728 13.6448 8.53038 1.3457 25.0924 1.3457C41.6287 1.3457 47.2688 13.6003 47.6178 24.6534M47.8661 37.9246C47.8661 37.9246 48.1799 45.1363 44.4768 48.2773C40.7761 51.4065 31.4305 51.3456 31.4305 51.3456" stroke="#006837" stroke-width="2" stroke-linecap="round"/>
</svg>
