<svg width="55" height="53" viewBox="0 0 55 53" fill="none" xmlns="http://www.w3.org/2000/svg">
<path d="M3.11093 10.2336C2.80438 10.3176 2.52549 10.4795 2.30211 10.7033C2.02992 11.0315 1.87869 11.4413 1.87319 11.8656C0.721225 22.7981 0.696715 29.36 1.87319 40.2126C1.87376 40.5986 1.99221 40.9754 2.21304 41.2938C2.43387 41.6122 2.74681 41.8573 3.11093 41.9972L26.3805 50.9466L27.0791 51.1379L27.7801 50.9442L51.0497 41.9996C51.4111 41.8559 51.7215 41.6098 51.9417 41.2923C52.162 40.9747 52.2822 40.5999 52.2874 40.2151C53.5129 29.2293 53.5276 22.8949 52.2874 12.0109C52.3207 11.5352 52.1671 11.0651 51.8585 10.6985C51.6552 10.4184 51.3743 10.2023 51.0497 10.0762V10.081" stroke="#006837" stroke-width="2" stroke-linecap="round" stroke-linejoin="round"/>
<path d="M52.2507 11.5046C52.1888 11.2067 52.0542 10.9282 51.8585 10.6934C51.6547 10.4139 51.374 10.1979 51.0497 10.0711L27.7801 1.28395C27.5597 1.18767 27.3213 1.13794 27.0803 1.13794C26.8393 1.13794 26.601 1.18767 26.3806 1.28395L14.7458 5.75624L3.11095 10.2285C2.80491 10.3111 2.52608 10.4714 2.30213 10.6934C2.10613 10.9289 1.97149 11.2082 1.90997 11.507C1.97354 11.8258 2.11668 12.1239 2.3264 12.3742C2.53613 12.6246 2.8058 12.8192 3.11095 12.9405L26.3806 21.8899H27.7776L40.5619 16.9745L51.0521 12.9405C51.36 12.8219 51.6322 12.6279 51.8432 12.3767C52.0542 12.1255 52.1969 11.8254 52.258 11.5046H52.2531H52.2507Z" fill="white" fill-opacity="0.1"/>
<path d="M40.5619 16.9721L27.7801 21.8875H26.3806L3.11095 12.9405C2.8058 12.8192 2.53613 12.6246 2.3264 12.3742C2.11668 12.1239 1.97354 11.8258 1.90997 11.507C1.97149 11.2082 2.10613 10.9289 2.30213 10.6934C2.52608 10.4714 2.80491 10.3111 3.11095 10.2285L14.7458 5.75624M40.5619 16.9721L51.0521 12.9405C51.36 12.8219 51.6322 12.6279 51.8432 12.3767C52.0542 12.1255 52.1969 11.8254 52.258 11.5046H52.2531C52.1912 11.2067 52.0566 10.9282 51.861 10.6934C51.6571 10.4139 51.3764 10.1979 51.0521 10.0711L27.7825 1.28395C27.5621 1.18767 27.3238 1.13794 27.0828 1.13794C26.8418 1.13794 26.6034 1.18767 26.383 1.28395L14.7458 5.75624M40.5619 16.9721L14.7458 5.75624M27.0815 51.1377V21.8875M35.66 38.147L45.4639 34.5149" stroke="#006837" stroke-width="2" stroke-linecap="round" stroke-linejoin="round"/>
</svg>
