<svg width="52" height="53" viewBox="0 0 52 53" fill="none" xmlns="http://www.w3.org/2000/svg">
<path fill-rule="evenodd" clip-rule="evenodd" d="M37.4845 49.6334C34.3806 51.915 30.0446 51.7416 27.1985 49.1438C19.1471 41.7923 11.4904 34.0199 4.26056 25.8592C3.36757 24.8677 2.75824 23.6539 2.49665 22.3454C1.5737 17.5831 -0.37762 5.70415 2.54818 2.77601C5.47633 -0.152139 17.3529 1.80152 22.1129 2.72447C23.4247 2.98449 24.6381 3.59354 25.6313 4.48604C33.7921 11.7159 41.5645 19.3726 48.916 27.424C51.5138 30.2678 51.6801 34.6085 49.4055 37.7123C47.7634 39.9494 46.0276 42.1959 43.9943 44.2245C41.968 46.2508 39.7239 47.9889 37.4868 49.631L37.4845 49.6334ZM20.0749 13.4368C20.5468 13.8827 20.9245 14.4186 21.1857 15.013C21.4468 15.6074 21.5862 16.2481 21.5954 16.8973C21.6047 17.5464 21.4837 18.1908 21.2396 18.7924C20.9955 19.394 20.6332 19.9405 20.1742 20.3997C19.7152 20.8588 19.1688 21.2213 18.5673 21.4656C17.9658 21.7099 17.3214 21.8311 16.6723 21.8221C16.0231 21.813 15.3824 21.6739 14.7879 21.413C14.1934 21.152 13.6573 20.7745 13.2113 20.3027C12.3428 19.3841 11.8667 18.163 11.8843 16.8989C11.9019 15.6348 12.4118 14.4274 13.3056 13.5334C14.1993 12.6393 15.4066 12.129 16.6706 12.111C17.9347 12.0929 19.156 12.5686 20.0749 13.4368Z" fill="white" fill-opacity="0.1" stroke="#006837" stroke-width="2"/>
</svg>
