<svg width="44" height="53" viewBox="0 0 44 53" fill="none" xmlns="http://www.w3.org/2000/svg">
<path d="M1.38267 40.5919C1.71654 43.3849 3.03453 45.9676 5.10028 47.8769C7.16603 49.7861 9.84439 50.897 12.655 51.0102C18.7705 51.2204 24.8913 51.2196 31.0067 51.0079C33.8172 50.8952 36.4955 49.7848 38.5613 47.876C40.6271 45.9671 41.9452 43.3847 42.2791 40.5919C42.5228 38.57 42.6513 36.536 42.6641 34.4995C42.6641 32.4439 42.5078 30.4115 42.2791 28.4095C41.9458 25.6167 40.6282 23.034 38.5629 21.1247C36.4975 19.2154 33.8195 18.1045 31.0091 17.9911C27.9501 17.8838 24.8911 17.8278 21.832 17.8301C18.7723 17.8291 15.7128 17.8827 12.655 17.9911C9.84429 18.1046 7.16595 19.2158 5.10054 21.1256C3.03513 23.0353 1.71784 25.6186 1.385 28.4118C1.14214 30.4322 1.0136 32.4647 1 34.4995C1 36.5599 1.15633 38.5922 1.38267 40.5895V40.5919Z" fill="white" fill-opacity="0.1" stroke="#006837" stroke-width="2"/>
<path d="M33.4988 17.8378V12.8328C33.4986 11.3007 33.1967 9.78361 32.6103 8.3682C32.0238 6.95279 31.1643 5.66675 30.0809 4.58351C27.8927 2.3958 24.9251 1.16693 21.8309 1.16724C18.7367 1.16755 15.7694 2.39701 13.5817 4.58516C11.394 6.77331 10.1651 9.7409 10.1654 12.8351V17.8378" stroke="#006837" stroke-width="2" stroke-linecap="round" stroke-linejoin="round"/>
<path d="M21.832 39.5002C23.1582 39.5002 24.43 38.9734 25.3678 38.0356C26.3055 37.0979 26.8324 35.826 26.8324 34.4999C26.8324 33.1737 26.3055 31.9018 25.3678 30.9641C24.43 30.0263 23.1582 29.4995 21.832 29.4995C20.5058 29.4995 19.234 30.0263 18.2962 30.9641C17.3585 31.9018 16.8317 33.1737 16.8317 34.4999C16.8317 35.826 17.3585 37.0979 18.2962 38.0356C19.234 38.9734 20.5058 39.5002 21.832 39.5002Z" stroke="#006837" stroke-width="2"/>
</svg>
